<svg viewBox="0 0 900 700" xmlns="http://www.w3.org/2000/svg" xmlns:xlink="http://www.w3.org/1999/xlink">
<defs>
  <style>
    @keyframes blink { 0%,100%{opacity:1} 50%{opacity:.45} }
    .s  { animation: blink 4s   ease-in-out infinite; }
    .k  { animation: blink 3s   ease-in-out infinite; }
    .ag { animation: blink 2.4s ease-in-out infinite; }
    .ob { animation: blink 5s   ease-in-out infinite; }
  </style>
  <marker id="ab" viewBox="0 0 10 6" refX="9" refY="3" markerWidth="7" markerHeight="5" orient="auto"><path d="M0,0 L10,3 L0,6Z" fill="#60a5fa"/></marker>
  <marker id="av" viewBox="0 0 10 6" refX="9" refY="3" markerWidth="7" markerHeight="5" orient="auto"><path d="M0,0 L10,3 L0,6Z" fill="#a78bfa"/></marker>
  <marker id="ap" viewBox="0 0 10 6" refX="9" refY="3" markerWidth="7" markerHeight="5" orient="auto"><path d="M0,0 L10,3 L0,6Z" fill="#f472b6"/></marker>
  <marker id="ac" viewBox="0 0 10 6" refX="9" refY="3" markerWidth="7" markerHeight="5" orient="auto"><path d="M0,0 L10,3 L0,6Z" fill="#22d3ee"/></marker>
  <marker id="ao" viewBox="0 0 10 6" refX="9" refY="3" markerWidth="7" markerHeight="5" orient="auto"><path d="M0,0 L10,3 L0,6Z" fill="#fb923c"/></marker>
  <marker id="ag" viewBox="0 0 10 6" refX="9" refY="3" markerWidth="7" markerHeight="5" orient="auto"><path d="M0,0 L10,3 L0,6Z" fill="#86efac"/></marker>
  <path id="p0"  d="M110,82 C110,104 240,104 240,122"/>
  <path id="p1"  d="M303,82 C303,104 355,104 355,122"/>
  <path id="p2"  d="M497,82 C497,104 545,104 545,122"/>
  <path id="p3"  d="M690,82 C690,104 660,104 660,122"/>
  <path id="p4"  d="M295,178 C295,200 222,200 222,218"/>
  <path id="p5"  d="M605,178 C605,200 678,200 678,218"/>
  <path id="p6"  d="M222,274 C222,298 388,298 388,316"/>
  <path id="p7"  d="M678,274 C678,298 512,298 512,316"/>
  <path id="p8"  d="M450,372 L450,412"/>
  <path id="p9"  d="M450,468 L450,508"/>
  <path id="p10" d="M382,564 C382,590 197,590 197,608"/>
  <path id="p11" d="M450,564 L450,608"/>
  <path id="p12" d="M518,564 C518,590 703,590 703,608"/>
  <path id="p13" d="M575,522 C648,510 648,552 575,540"/>
</defs>

<!-- BACKGROUND -->
<rect width="900" height="700" fill="#07090f" rx="14"/>
<line x1="0" y1="104" x2="900" y2="104" stroke="#fff" stroke-width="0.4" opacity="0.05"/>
<line x1="0" y1="200" x2="900" y2="200" stroke="#fff" stroke-width="0.4" opacity="0.05"/>
<line x1="0" y1="296" x2="900" y2="296" stroke="#fff" stroke-width="0.4" opacity="0.05"/>
<line x1="0" y1="392" x2="900" y2="392" stroke="#fff" stroke-width="0.4" opacity="0.05"/>
<line x1="0" y1="488" x2="900" y2="488" stroke="#fff" stroke-width="0.4" opacity="0.05"/>
<line x1="0" y1="584" x2="900" y2="584" stroke="#fff" stroke-width="0.4" opacity="0.05"/>

<!-- TITLE -->
<text x="450" y="18" fill="#5a6a82" font-size="10" font-family="'Courier New',monospace" text-anchor="middle" letter-spacing="2.5">AUTONOMOUS PM ENGINE  ·  MULTI-AGENT DATA PIPELINE</text>

<!-- LAYER BANDS -->
<rect x="15" y="24"  width="870" height="66" rx="7" fill="#3b82f6" opacity="0.06"/>
<rect x="15" y="116" width="870" height="66" rx="7" fill="#8b5cf6" opacity="0.06"/>
<rect x="15" y="208" width="870" height="66" rx="7" fill="#f59e0b" opacity="0.05"/>
<rect x="15" y="300" width="870" height="80" rx="7" fill="#ec4899" opacity="0.05"/>
<rect x="15" y="396" width="870" height="80" rx="7" fill="#06b6d4" opacity="0.05"/>
<rect x="15" y="488" width="870" height="80" rx="7" fill="#f97316" opacity="0.05"/>
<rect x="15" y="596" width="870" height="80" rx="7" fill="#22c55e" opacity="0.04"/>

<!-- RIGHT-SIDE LAYER LABELS — bright, readable colours -->
<text x="878" y="42"  fill="#4a90d9" font-size="10" font-family="'Courier New',monospace" text-anchor="end" font-weight="bold">INPUT SOURCES</text>
<text x="878" y="134" fill="#9175e0" font-size="10" font-family="'Courier New',monospace" text-anchor="end" font-weight="bold">INGESTION</text>
<text x="878" y="226" fill="#c49530" font-size="10" font-family="'Courier New',monospace" text-anchor="end" font-weight="bold">KNOWLEDGE</text>
<text x="878" y="318" fill="#d460a0" font-size="10" font-family="'Courier New',monospace" text-anchor="end" font-weight="bold">DATA ANALYST</text>
<text x="878" y="414" fill="#1ab0c8" font-size="10" font-family="'Courier New',monospace" text-anchor="end" font-weight="bold">PM AGENT</text>
<text x="878" y="506" fill="#d47530" font-size="10" font-family="'Courier New',monospace" text-anchor="end" font-weight="bold">ENG AGENT</text>
<text x="878" y="614" fill="#55a870" font-size="10" font-family="'Courier New',monospace" text-anchor="end" font-weight="bold">OUTPUTS</text>

<!-- CONNECTION PATHS -->
<path d="M110,82 C110,104 240,104 240,122" fill="none" stroke="#3b82f6" stroke-width="1.5" opacity="0.5" marker-end="url(#ab)"/>
<path d="M303,82 C303,104 355,104 355,122" fill="none" stroke="#3b82f6" stroke-width="1.5" opacity="0.5" marker-end="url(#ab)"/>
<path d="M497,82 C497,104 545,104 545,122" fill="none" stroke="#3b82f6" stroke-width="1.5" opacity="0.5" marker-end="url(#ab)"/>
<path d="M690,82 C690,104 660,104 660,122" fill="none" stroke="#3b82f6" stroke-width="1.5" opacity="0.5" marker-end="url(#ab)"/>
<path d="M295,178 C295,200 222,200 222,218" fill="none" stroke="#a78bfa" stroke-width="1.5" opacity="0.5" marker-end="url(#av)"/>
<path d="M605,178 C605,200 678,200 678,218" fill="none" stroke="#a78bfa" stroke-width="1.5" opacity="0.5" marker-end="url(#av)"/>
<path d="M222,274 C222,298 388,298 388,316" fill="none" stroke="#fbbf24" stroke-width="1.5" opacity="0.5" marker-end="url(#ap)"/>
<path d="M678,274 C678,298 512,298 512,316" fill="none" stroke="#34d399" stroke-width="1.5" opacity="0.5" marker-end="url(#ap)"/>
<path d="M450,372 L450,412" fill="none" stroke="#f472b6" stroke-width="1.5" opacity="0.55" marker-end="url(#ac)"/>
<path d="M450,468 L450,508" fill="none" stroke="#22d3ee" stroke-width="1.5" opacity="0.55" marker-end="url(#ao)"/>
<path d="M382,564 C382,590 197,590 197,608" fill="none" stroke="#fb923c" stroke-width="1.5" opacity="0.5" marker-end="url(#ag)"/>
<path d="M450,564 L450,608"                  fill="none" stroke="#fb923c" stroke-width="1.5" opacity="0.5" marker-end="url(#ag)"/>
<path d="M518,564 C518,590 703,590 703,608" fill="none" stroke="#fb923c" stroke-width="1.5" opacity="0.5" marker-end="url(#ag)"/>
<path d="M575,522 C648,510 648,552 575,540" fill="none" stroke="#fb923c" stroke-width="1.5" opacity="0.8" stroke-dasharray="4,3" marker-end="url(#ao)"/>
<text x="652" y="522" fill="#d47530" font-size="9.5" font-family="'Courier New',monospace" font-weight="bold">&#x21BA; max 3x</text>

<!-- ============================================================
     NODE BOXES
     Title:    12px  bright accent colour (e.g. #93c5fd)
     Subtitle: 10px  mid-brightness accent colour (e.g. #7eb3ef)
     Both colours chosen for clear contrast on dark background
     ============================================================ -->

<!-- SOURCE BOXES -->
<g class="s">
  <rect x="40"  y="28" width="140" height="54" rx="9" fill="#040e1e" stroke="#3b82f6" stroke-width="1.5"/>
  <text x="110" y="51" fill="#93c5fd" font-size="12" font-family="'Courier New',monospace" text-anchor="middle" font-weight="bold">&#128196; Interviews</text>
  <text x="110" y="70" fill="#7eb3ef" font-size="10" font-family="'Courier New',monospace" text-anchor="middle">.txt  .pdf  .docx</text>
</g>
<g class="s">
  <rect x="233" y="28" width="140" height="54" rx="9" fill="#040e1e" stroke="#3b82f6" stroke-width="1.5"/>
  <text x="303" y="51" fill="#93c5fd" font-size="12" font-family="'Courier New',monospace" text-anchor="middle" font-weight="bold">&#128202; Surveys</text>
  <text x="303" y="70" fill="#7eb3ef" font-size="10" font-family="'Courier New',monospace" text-anchor="middle">.csv  row per user</text>
</g>
<g class="s">
  <rect x="427" y="28" width="140" height="54" rx="9" fill="#040e1e" stroke="#3b82f6" stroke-width="1.5"/>
  <text x="497" y="51" fill="#93c5fd" font-size="12" font-family="'Courier New',monospace" text-anchor="middle" font-weight="bold">&#128270; Research</text>
  <text x="497" y="70" fill="#7eb3ef" font-size="10" font-family="'Courier New',monospace" text-anchor="middle">.md  .pdf  reports</text>
</g>
<g class="s">
  <rect x="620" y="28" width="140" height="54" rx="9" fill="#040e1e" stroke="#3b82f6" stroke-width="1.5"/>
  <text x="690" y="51" fill="#93c5fd" font-size="12" font-family="'Courier New',monospace" text-anchor="middle" font-weight="bold">&#128241; Transcripts</text>
  <text x="690" y="70" fill="#7eb3ef" font-size="10" font-family="'Courier New',monospace" text-anchor="middle">.txt  .docx</text>
</g>

<!-- INGESTION BOX -->
<rect x="172" y="116" width="556" height="54" rx="9" fill="#07031c" stroke="#a78bfa" stroke-width="1.5"/>
<text x="450" y="140" fill="#c4b5fd" font-size="12" font-family="'Courier New',monospace" text-anchor="middle" font-weight="bold">&#9889; Document Loader  +  Semantic Chunker</text>
<text x="450" y="159" fill="#a88fe8" font-size="10" font-family="'Courier New',monospace" text-anchor="middle">BGE-M3 embeddings  ·  sentence-window splitting  ·  metadata tagging</text>

<!-- STORE BOXES -->
<g class="k">
  <rect x="122" y="208" width="200" height="54" rx="9" fill="#0e0900" stroke="#fbbf24" stroke-width="1.5"/>
  <text x="222" y="232" fill="#fde68a" font-size="12" font-family="'Courier New',monospace" text-anchor="middle" font-weight="bold">&#128452; ChromaDB</text>
  <text x="222" y="251" fill="#e8b84b" font-size="10" font-family="'Courier New',monospace" text-anchor="middle">Hybrid Dense + Sparse Search</text>
</g>
<g class="k">
  <rect x="578" y="208" width="200" height="54" rx="9" fill="#000d07" stroke="#34d399" stroke-width="1.5"/>
  <text x="678" y="232" fill="#6ee7b7" font-size="12" font-family="'Courier New',monospace" text-anchor="middle" font-weight="bold">&#127760; Neo4j Graph DB</text>
  <text x="678" y="251" fill="#52c899" font-size="10" font-family="'Courier New',monospace" text-anchor="middle">Pain Point &#8594; Feature Graph</text>
</g>

<!-- AGENT BOXES -->
<g class="ag">
  <rect x="325" y="300" width="250" height="60" rx="9" fill="#100010" stroke="#f472b6" stroke-width="1.5"/>
  <text x="450" y="327" fill="#fbcfe8" font-size="12" font-family="'Courier New',monospace" text-anchor="middle" font-weight="bold">&#128202; Data Analyst Agent</text>
  <text x="450" y="348" fill="#ef89c0" font-size="10" font-family="'Courier New',monospace" text-anchor="middle">ReAct  ·  queries both stores  ·  AnalysisReport</text>
</g>
<g class="ag">
  <rect x="325" y="396" width="250" height="60" rx="9" fill="#00080f" stroke="#22d3ee" stroke-width="1.5"/>
  <text x="450" y="423" fill="#a5f3fc" font-size="12" font-family="'Courier New',monospace" text-anchor="middle" font-weight="bold">&#128221; PM Agent</text>
  <text x="450" y="444" fill="#5ec8e0" font-size="10" font-family="'Courier New',monospace" text-anchor="middle">Plan+Execute  ·  drafts full PRD sections</text>
</g>
<g class="ag">
  <rect x="325" y="488" width="250" height="60" rx="9" fill="#0d0600" stroke="#fb923c" stroke-width="1.5"/>
  <text x="450" y="515" fill="#fed7aa" font-size="12" font-family="'Courier New',monospace" text-anchor="middle" font-weight="bold">&#9881; Engineering Agent</text>
  <text x="450" y="536" fill="#f0a060" font-size="10" font-family="'Courier New',monospace" text-anchor="middle">Self-Critique Loop  ·  feasibility review</text>
</g>

<!-- OUTPUT BOXES -->
<g class="ob">
  <rect x="122" y="598" width="150" height="56" rx="9" fill="#000d05" stroke="#86efac" stroke-width="1.5"/>
  <text x="197" y="622" fill="#bbf7d0" font-size="12" font-family="'Courier New',monospace" text-anchor="middle" font-weight="bold">&#128203; prd_*.md</text>
  <text x="197" y="641" fill="#75d490" font-size="10" font-family="'Courier New',monospace" text-anchor="middle">Requirements doc</text>
</g>
<g class="ob">
  <rect x="375" y="598" width="150" height="56" rx="9" fill="#000d05" stroke="#86efac" stroke-width="1.5"/>
  <text x="450" y="622" fill="#bbf7d0" font-size="12" font-family="'Courier New',monospace" text-anchor="middle" font-weight="bold">&#128506; roadmap_*.md</text>
  <text x="450" y="641" fill="#75d490" font-size="10" font-family="'Courier New',monospace" text-anchor="middle">Quarterly milestones</text>
</g>
<g class="ob">
  <rect x="628" y="598" width="150" height="56" rx="9" fill="#000d05" stroke="#86efac" stroke-width="1.5"/>
  <text x="703" y="622" fill="#bbf7d0" font-size="12" font-family="'Courier New',monospace" text-anchor="middle" font-weight="bold">&#127919; matrix_*.md</text>
  <text x="703" y="641" fill="#75d490" font-size="10" font-family="'Courier New',monospace" text-anchor="middle">RICE priority scores</text>
</g>

<!-- ANIMATED DOTS -->
<circle r="3.5" fill="#60a5fa" opacity="0.9"><animateMotion dur="1.7s" repeatCount="indefinite" calcMode="linear"><mpath href="#p0" xlink:href="#p0"/></animateMotion></circle>
<circle r="3.5" fill="#60a5fa" opacity="0.5"><animateMotion dur="1.7s" begin="0.85s" repeatCount="indefinite" calcMode="linear"><mpath href="#p0" xlink:href="#p0"/></animateMotion></circle>
<circle r="3.5" fill="#60a5fa" opacity="0.9"><animateMotion dur="1.7s" begin="0.15s" repeatCount="indefinite" calcMode="linear"><mpath href="#p1" xlink:href="#p1"/></animateMotion></circle>
<circle r="3.5" fill="#60a5fa" opacity="0.5"><animateMotion dur="1.7s" begin="1.0s"  repeatCount="indefinite" calcMode="linear"><mpath href="#p1" xlink:href="#p1"/></animateMotion></circle>
<circle r="3.5" fill="#60a5fa" opacity="0.9"><animateMotion dur="1.7s" begin="0.3s"  repeatCount="indefinite" calcMode="linear"><mpath href="#p2" xlink:href="#p2"/></animateMotion></circle>
<circle r="3.5" fill="#60a5fa" opacity="0.5"><animateMotion dur="1.7s" begin="1.15s" repeatCount="indefinite" calcMode="linear"><mpath href="#p2" xlink:href="#p2"/></animateMotion></circle>
<circle r="3.5" fill="#60a5fa" opacity="0.9"><animateMotion dur="1.7s" begin="0.45s" repeatCount="indefinite" calcMode="linear"><mpath href="#p3" xlink:href="#p3"/></animateMotion></circle>
<circle r="3.5" fill="#60a5fa" opacity="0.5"><animateMotion dur="1.7s" begin="1.3s"  repeatCount="indefinite" calcMode="linear"><mpath href="#p3" xlink:href="#p3"/></animateMotion></circle>

<circle r="3.5" fill="#a78bfa" opacity="0.9"><animateMotion dur="1.5s" repeatCount="indefinite" calcMode="linear"><mpath href="#p4" xlink:href="#p4"/></animateMotion></circle>
<circle r="3.5" fill="#a78bfa" opacity="0.5"><animateMotion dur="1.5s" begin="0.75s" repeatCount="indefinite" calcMode="linear"><mpath href="#p4" xlink:href="#p4"/></animateMotion></circle>
<circle r="3.5" fill="#a78bfa" opacity="0.9"><animateMotion dur="1.5s" begin="0.25s" repeatCount="indefinite" calcMode="linear"><mpath href="#p5" xlink:href="#p5"/></animateMotion></circle>
<circle r="3.5" fill="#a78bfa" opacity="0.5"><animateMotion dur="1.5s" begin="1.0s"  repeatCount="indefinite" calcMode="linear"><mpath href="#p5" xlink:href="#p5"/></animateMotion></circle>

<circle r="3.5" fill="#fbbf24" opacity="0.9"><animateMotion dur="1.9s" repeatCount="indefinite" calcMode="linear"><mpath href="#p6" xlink:href="#p6"/></animateMotion></circle>
<circle r="3.5" fill="#fbbf24" opacity="0.5"><animateMotion dur="1.9s" begin="0.95s" repeatCount="indefinite" calcMode="linear"><mpath href="#p6" xlink:href="#p6"/></animateMotion></circle>
<circle r="3.5" fill="#34d399" opacity="0.9"><animateMotion dur="1.9s" begin="0.35s" repeatCount="indefinite" calcMode="linear"><mpath href="#p7" xlink:href="#p7"/></animateMotion></circle>
<circle r="3.5" fill="#34d399" opacity="0.5"><animateMotion dur="1.9s" begin="1.3s"  repeatCount="indefinite" calcMode="linear"><mpath href="#p7" xlink:href="#p7"/></animateMotion></circle>

<circle r="4" fill="#f472b6" opacity="0.95"><animateMotion dur="1.1s" repeatCount="indefinite" calcMode="linear"><mpath href="#p8" xlink:href="#p8"/></animateMotion></circle>
<circle r="4" fill="#f472b6" opacity="0.5"><animateMotion dur="1.1s" begin="0.55s" repeatCount="indefinite" calcMode="linear"><mpath href="#p8" xlink:href="#p8"/></animateMotion></circle>
<circle r="4" fill="#22d3ee" opacity="0.95"><animateMotion dur="1.1s" begin="0.2s"  repeatCount="indefinite" calcMode="linear"><mpath href="#p9" xlink:href="#p9"/></animateMotion></circle>
<circle r="4" fill="#22d3ee" opacity="0.5"><animateMotion dur="1.1s" begin="0.75s" repeatCount="indefinite" calcMode="linear"><mpath href="#p9" xlink:href="#p9"/></animateMotion></circle>

<circle r="3.5" fill="#fb923c" opacity="0.9"><animateMotion dur="1.8s" repeatCount="indefinite" calcMode="linear"><mpath href="#p10" xlink:href="#p10"/></animateMotion></circle>
<circle r="3.5" fill="#fb923c" opacity="0.5"><animateMotion dur="1.8s" begin="0.9s"  repeatCount="indefinite" calcMode="linear"><mpath href="#p10" xlink:href="#p10"/></animateMotion></circle>
<circle r="3.5" fill="#fb923c" opacity="0.9"><animateMotion dur="1.4s" begin="0.15s" repeatCount="indefinite" calcMode="linear"><mpath href="#p11" xlink:href="#p11"/></animateMotion></circle>
<circle r="3.5" fill="#fb923c" opacity="0.5"><animateMotion dur="1.4s" begin="0.85s" repeatCount="indefinite" calcMode="linear"><mpath href="#p11" xlink:href="#p11"/></animateMotion></circle>
<circle r="3.5" fill="#fb923c" opacity="0.9"><animateMotion dur="1.8s" begin="0.35s" repeatCount="indefinite" calcMode="linear"><mpath href="#p12" xlink:href="#p12"/></animateMotion></circle>
<circle r="3.5" fill="#fb923c" opacity="0.5"><animateMotion dur="1.8s" begin="1.25s" repeatCount="indefinite" calcMode="linear"><mpath href="#p12" xlink:href="#p12"/></animateMotion></circle>
<circle r="3" fill="#fb923c" opacity="0.9"><animateMotion dur="2.4s" repeatCount="indefinite" calcMode="linear"><mpath href="#p13" xlink:href="#p13"/></animateMotion></circle>

<!-- BOTTOM CAPTION -->
<text x="450" y="688" fill="#3a4f6a" font-size="9" font-family="'Courier New',monospace" text-anchor="middle" letter-spacing="1">Sources &#x2192; Ingest &#x2192; ChromaDB + Neo4j &#x2192; [ Analyst &#x2192; PM &#x2192; Eng ] &#x2192; PRD + Roadmap + Matrix</text>
</svg>
